{"asset":{"generator":"3D Builder","version":"2.0"},"scene":0,"scenes":[{"nodes":[0]}],"nodes":[{"mesh":0,"matrix":[-1.0000007152557373,-3.5989478419651277E-7,-4.8446604949958783E-8,0,2.6645656703294662E-7,-2.7041539851779817E-7,1.0000001192092896,0,-3.5989418734061474E-7,0.99999988079071045,2.7041579642173019E-7,0,1.154293638450099E-8,0.40749055147171021,0.85711443424224854,1]}],"meshes":[{"primitives":[{"attributes":{"POSITION":0},"mode":4,"indices":4,"material":0},{"attributes":{"POSITION":1},"mode":4,"indices":5,"material":1},{"attributes":{"POSITION":2},"mode":4,"indices":6,"material":2},{"attributes":{"POSITION":3},"mode":4,"indices":7,"material":3}]}],"materials":[{"name":"body","pbrMetallicRoughness":{"baseColorFactor":[0.87135744094848633,0.364938884973526,0,1],"metallicFactor":0,"roughnessFactor":1},"alphaMode":"OPAQUE"},{"name":"Material.001","pbrMetallicRoughness":{"baseColorFactor":[0.800000011920929,0.800000011920929,0.800000011920929,1],"metallicFactor":0,"roughnessFactor":0.5},"alphaMode":"OPAQUE"},{"name":"Material.002","pbrMetallicRoughness":{"baseColorFactor":[0,0,0,1],"metallicFactor":0,"roughnessFactor":0.5},"alphaMode":"OPAQUE"},{"name":"Material.003","pbrMetallicRoughness":{"baseColorFactor":[0.11906516551971436,0.11906516551971436,0.11906516551971436,1],"metallicFactor":0,"roughnessFactor":0.5},"alphaMode":"OPAQUE"}],"accessors":[{"bufferView":0,"byteOffset":0,"count":116,"componentType":5126,"type":"VEC3","min":[-2.5420496463775635,-3.0891177654266357,-0.40749087929725647],"max":[2.5420496463775635,1.1472481489181519,0.47897621989250183]},{"bufferView":0,"byteOffset":1392,"count":28,"componentType":5126,"type":"VEC3","min":[-2.85884690284729,-1.8567161560058594,-0.22489400207996368],"max":[2.85884690284729,0.64087504148483276,0.4074910581111908]},{"bufferView":0,"byteOffset":1728,"count":40,"componentType":5126,"type":"VEC3","min":[-2.85884690284729,-2.5585691928863525,-0.40749087929725647],"max":[2.85884690284729,0.64087516069412231,0.17541436851024628]},{"bufferView":0,"byteOffset":2208,"count":12,"componentType":5126,"type":"VEC3","min":[-0.69452577829360962,1.1472481489181519,-0.28967294096946716],"max":[0.69452577829360962,1.3748891353607178,0.28967323899269104]},{"bufferView":1,"byteOffset":0,"count":582,"componentType":5125,"type":"SCALAR"},{"bufferView":1,"byteOffset":2328,"count":96,"componentType":5125,"type":"SCALAR"},{"bufferView":1,"byteOffset":2712,"count":144,"componentType":5125,"type":"SCALAR"},{"bufferView":1,"byteOffset":3288,"count":48,"componentType":5125,"type":"SCALAR"}],"bufferViews":[{"buffer":0,"byteOffset":0,"byteLength":2352,"byteStride":12,"target":34962},{"buffer":0,"byteOffset":2352,"byteLength":3480,"target":34963}],"buffers":[{"byteLength":5832,"uri":"airplane_model.bin"}]}