{"asset":{"generator":"3D Builder","version":"2.0"},"scene":0,"scenes":[{"nodes":[0]}],"nodes":[{"children":[1,2,3,4,5,6]},{"mesh":0,"matrix":[0.42209461331367493,0,0,0,0,-5.0317598976334921E-8,-0.42209455370903015,0,0,0.42209455370903015,-5.0317598976334921E-8,0,-5.3913908004760742,0.019235134124755859,-0.0022260884288698435,1]},{"mesh":1,"matrix":[0.42209461331367493,0,0,0,0,-5.0317598976334921E-8,-0.42209455370903015,0,0,0.42209455370903015,-5.0317598976334921E-8,0,-5.3913908004760742,0.019235134124755859,-0.0022260884288698435,1]},{"mesh":2,"matrix":[0.42209461331367493,0,0,0,0,-5.0317598976334921E-8,-0.42209455370903015,0,0,0.42209455370903015,-5.0317598976334921E-8,0,-5.3913908004760742,0.019235134124755859,-0.0022260884288698435,1]},{"mesh":3,"matrix":[0.42209461331367493,0,0,0,0,-5.0317598976334921E-8,-0.42209455370903015,0,0,0.42209455370903015,-5.0317598976334921E-8,0,-5.3913908004760742,0.019235134124755859,-0.0022260884288698435,1]},{"mesh":4,"matrix":[0.42209461331367493,0,0,0,0,-5.0317598976334921E-8,-0.42209455370903015,0,0,0.42209455370903015,-5.0317598976334921E-8,0,-5.3913908004760742,0.019235134124755859,-0.0022260884288698435,1]},{"mesh":5,"matrix":[0.42209461331367493,0,0,0,0,-5.0317598976334921E-8,-0.42209455370903015,0,0,0.42209455370903015,-5.0317598976334921E-8,0,-5.3913908004760742,0.019235134124755859,-0.0022260884288698435,1]}],"meshes":[{"primitives":[{"attributes":{"POSITION":0},"mode":4,"indices":1,"material":0}]},{"primitives":[{"attributes":{"POSITION":2},"mode":4,"indices":3,"material":1}]},{"primitives":[{"attributes":{"POSITION":4},"mode":4,"indices":5,"material":1}]},{"primitives":[{"attributes":{"POSITION":6},"mode":4,"indices":7,"material":1}]},{"primitives":[{"attributes":{"POSITION":8},"mode":4,"indices":9,"material":1}]},{"primitives":[{"attributes":{"POSITION":10},"mode":4,"indices":11,"material":1}]}],"materials":[{"name":"Material.002","pbrMetallicRoughness":{"baseColorFactor":[0.29893055558204651,0.12555059790611267,0.039310414344072342,1],"metallicFactor":0,"roughnessFactor":0.5},"alphaMode":"OPAQUE"},{"name":"Material.001","pbrMetallicRoughness":{"baseColorFactor":[0.14826832711696625,0.800000011920929,0.041630510240793228,1],"metallicFactor":0,"roughnessFactor":0.5},"alphaMode":"OPAQUE"}],"accessors":[{"bufferView":0,"byteOffset":0,"count":12,"componentType":5126,"type":"VEC3","min":[12.182896614074707,-0.68659842014312744,-0.045570671558380127],"max":[13.362982749938965,0.67604708671569824,1.9544291496276855]},{"bufferView":1,"byteOffset":0,"count":60,"componentType":5125,"type":"SCALAR"},{"bufferView":2,"byteOffset":0,"count":30,"componentType":5126,"type":"VEC3","min":[11.281557083129883,-1.7273752689361572,1.1346701383590698],"max":[14.264322280883789,1.7168238162994385,2.4770550727844238]},{"bufferView":3,"byteOffset":0,"count":168,"componentType":5125,"type":"SCALAR"},{"bufferView":4,"byteOffset":0,"count":28,"componentType":5126,"type":"VEC3","min":[11.434486389160156,-1.5031774044036865,1.7232458591461182],"max":[13.987998008728027,1.448290228843689,3.5420150756835937]},{"bufferView":5,"byteOffset":0,"count":156,"componentType":5125,"type":"SCALAR"},{"bufferView":6,"byteOffset":0,"count":28,"componentType":5126,"type":"VEC3","min":[11.485339164733887,-1.4137448072433472,2.9689993858337402],"max":[13.711947441101074,1.0630937814712524,4.1317539215087891]},{"bufferView":7,"byteOffset":0,"count":156,"componentType":5125,"type":"SCALAR"},{"bufferView":8,"byteOffset":0,"count":30,"componentType":5126,"type":"VEC3","min":[11.631258010864258,-1.1584677696228027,3.6612272262573242],"max":[13.607650756835937,0.83315730094909668,5.0575180053710937]},{"bufferView":9,"byteOffset":0,"count":168,"componentType":5125,"type":"SCALAR"},{"bufferView":10,"byteOffset":0,"count":24,"componentType":5126,"type":"VEC3","min":[11.716556549072266,-1.0017729997634888,4.4272046089172363],"max":[13.457770347595215,0.74795937538146973,5.8402276039123535]},{"bufferView":11,"byteOffset":0,"count":132,"componentType":5125,"type":"SCALAR"}],"bufferViews":[{"buffer":0,"byteOffset":0,"byteLength":144,"byteStride":12,"target":34962},{"buffer":0,"byteOffset":144,"byteLength":240,"target":34963},{"buffer":0,"byteOffset":384,"byteLength":360,"byteStride":12,"target":34962},{"buffer":0,"byteOffset":744,"byteLength":672,"target":34963},{"buffer":0,"byteOffset":1416,"byteLength":336,"byteStride":12,"target":34962},{"buffer":0,"byteOffset":1752,"byteLength":624,"target":34963},{"buffer":0,"byteOffset":2376,"byteLength":336,"byteStride":12,"target":34962},{"buffer":0,"byteOffset":2712,"byteLength":624,"target":34963},{"buffer":0,"byteOffset":3336,"byteLength":360,"byteStride":12,"target":34962},{"buffer":0,"byteOffset":3696,"byteLength":672,"target":34963},{"buffer":0,"byteOffset":4368,"byteLength":288,"byteStride":12,"target":34962},{"buffer":0,"byteOffset":4656,"byteLength":528,"target":34963}],"buffers":[{"byteLength":5184,"uri":"tree_model2.bin"}]}